<?xml version="1.0" ?><!DOCTYPE svg  PUBLIC '-//W3C//DTD SVG 1.1//EN'  'http://www.w3.org/Graphics/SVG/1.1/DTD/svg11.dtd'><svg enable-background="new 0 0 50 50" height="50px" id="Layer_1" version="1.1" viewBox="0 0 50 50" width="50px" xml:space="preserve" xmlns="http://www.w3.org/2000/svg" xmlns:xlink="http://www.w3.org/1999/xlink"><g><path d="M45,25c0,1.1-0.2,2.1-0.7,3c-1.1,2.4-3.5,4-6.3,4H17c-3.9,0-7-3.1-7-7c0-2.8,1.6-5.2,4-6.3c0,0,0-0.1,0-0.2   c0-0.3,0.1-0.7,0.1-1c0.1-0.4,0.2-0.7,0.3-1c1.1-3.2,4-5.5,7.6-5.5c1.2,0,2.3,0.2,3.3,0.7C26.7,9.5,29.2,8,32,8c4.4,0,8,3.6,8,8   c0,0.8-0.1,1.5-0.3,2.2C42.7,19,45,21.7,45,25z" fill="#BACACE"/></g><g><path d="M45,25c0,3.9-3.1,7-7,7H17c-2.9,0-5.4-1.8-6.5-4.3c1.1,0.8,2.4,1.3,3.9,1.3h19.2c3.5,0,6.4-2.9,6.4-6.4   c0-3-2.1-5.5-4.9-6.2c0.2-0.6,0.3-1.3,0.3-2c0-2.7-1.5-5.1-3.7-6.4c0.1,0,0.2,0,0.3,0c4.4,0,8,3.6,8,8c0,0.8-0.1,1.5-0.3,2.2   C42.7,19,45,21.7,45,25z" fill="#9FB5BA"/></g><g opacity="0.2"><path d="M33,29.5c0,0.9-0.2,1.7-0.6,2.5H17c-3.9,0-7-3.1-7-7c0-2.8,1.6-5.2,4-6.3c0,0,0-0.1,0-0.2c0-0.3,0.1-0.7,0.1-1   c0,0,0.1,0,0.1,0c0.3,0,0.5,0.1,0.8,0.2c1.5-1.7,3.7-2.7,6-2.7c4.2,0,7.6,3.1,7.7,7c0,0.1,0,0.2,0,0.3c0,0.4,0,0.7-0.1,1.1   C31.3,24.4,33,26.8,33,29.5z"/></g><g><path d="M31,29.5c0,0.9-0.2,1.8-0.6,2.5c-0.9,1.8-2.8,3-4.9,3H8.8c-3.1,0-5.5-2.5-5.5-5.5c0-2.2,1.3-4.1,3.2-5   c0.1-3.4,2.9-6.1,6.3-6.1c0.4,0,0.8,0,1.2,0.1c0.5,0.1,0.9,0.2,1.3,0.4c1.1-1.8,3.1-2.9,5.3-2.9c3.4,0,6.2,2.7,6.3,6.1   c0,0.1,0,0.2,0,0.2c0,0.6-0.1,1.2-0.2,1.8C29.2,24.7,31,26.9,31,29.5z" fill="#D3DEE2"/></g><g><path d="M31,29.5c0,3.1-2.5,5.5-5.5,5.5H8.8c-2.3,0-4.3-1.2-5.1-3.2C4.6,32.4,5.6,33,6.8,33H22   c2.8,0,5.1-2.5,5.1-5.3c0-2.4-1.6-4.5-3.8-5c0.1-0.5,0.2-1.1,0.2-1.6c0-2.2-1.2-4.1-2.9-5.1c0.1,0,0.2,0,0.2,0   c3.5,0,6.3,2.8,6.3,6.3c0,0.6-0.1,1.2-0.3,1.7C29.2,24.7,31,26.9,31,29.5z" fill="#C1D1D6"/></g><g opacity="0.2"><path d="M43,28.1c0,0.1,0,0.2,0,0.3c-1.1,2.2-3.3,3.6-6,3.6h-7.3c-0.9,2-2.6,3-4.7,3h-8.8c0-1,0.3-1.9,0.7-2.8   c0.6-1.1,1.5-2,2.7-2.7c0.4-3.5,3.3-6.1,6.9-6.4c0.2,0,0.4,0,0.6,0c0.8,0,1.6,0.1,2.3,0.4c1.4-1.7,3.6-2.7,5.9-2.7   C39.6,20.8,43,24.1,43,28.1z"/></g><g><path d="M42.8,30.1c0.2-0.6,0.3-1.1,0.3-1.8c0-3.5-2.8-6.3-6.3-6.3c-2.2,0-4.2,1.2-5.3,2.9   c-0.8-0.4-1.7-0.6-2.6-0.6c-3.4,0-6.2,2.7-6.3,6.1c-1.9,0.9-3.2,2.8-3.2,5c0,3.1,2.5,5.5,5.5,5.5h16.6c3.1,0,5.5-2.5,5.5-5.5   C47,32.9,45.2,30.7,42.8,30.1z" fill="#E6EDEF"/></g><g><path d="M47,35.5c0,3.1-2.5,5.5-5.5,5.5H24.8c-2.3,0-4.3-1.2-5.1-3.2c0.9,0.7,1.9,1.2,3.1,1.2H38   c2.8,0,5.1-2.5,5.1-5.3c0-2.4-1.6-4.5-3.8-5c0.1-0.5,0.2-1.1,0.2-1.6c0-2.2-1.2-4.1-2.9-5.1c0.1,0,0.2,0,0.2,0   c3.5,0,6.3,2.8,6.3,6.3c0,0.6-0.1,1.2-0.3,1.7C45.2,30.7,47,32.9,47,35.5z" fill="#DCE6E9"/></g></svg>